<svg xmlns="http://www.w3.org/2000/svg" xmlns:xlink="http://www.w3.org/1999/xlink" width="2000" zoomAndPan="magnify" viewBox="0 0 1500 1499.999933" height="2000" preserveAspectRatio="xMidYMid meet" version="1.0"><defs><g/><clipPath id="489023b164"><path d="M 363.378906 70.964844 L 1136.628906 70.964844 L 1136.628906 844.214844 L 363.378906 844.214844 Z M 363.378906 70.964844 " clip-rule="nonzero"/></clipPath></defs><rect x="-150" width="1800" fill="#ffffff" y="-149.999993" height="1799.99992" fill-opacity="1"/><rect x="-150" width="1800" fill="#000000" y="-149.999993" height="1799.99992" fill-opacity="1"/><path fill="#454545" d="M 710.738281 360.3125 C 537.398438 370.148438 418.148438 461.097656 418.148438 574.171875 C 418.148438 687.246094 537.398438 778.195312 710.738281 788.027344 L 710.738281 721.660156 C 579.195312 711.828125 491.910156 651.601562 491.910156 574.171875 C 491.910156 496.742188 579.195312 436.515625 710.738281 426.683594 Z M 710.738281 360.3125 " fill-opacity="1" fill-rule="nonzero"/><path fill="#454545" d="M 789.417969 360.3125 C 962.761719 370.148438 1082.007812 461.097656 1082.007812 574.171875 C 1082.007812 687.246094 962.761719 778.195312 789.417969 788.027344 L 789.417969 721.660156 C 920.960938 711.828125 1008.246094 651.601562 1008.246094 574.171875 C 1008.246094 496.742188 920.960938 436.515625 789.417969 426.683594 Z M 789.417969 360.3125 " fill-opacity="1" fill-rule="nonzero"/><path fill="#454545" d="M 456.257812 540.988281 L 688.609375 540.988281 L 688.609375 607.355469 L 456.257812 607.355469 C 431.671875 607.355469 412 592.605469 412 574.171875 C 412 555.734375 431.671875 540.988281 456.257812 540.988281 Z M 456.257812 540.988281 " fill-opacity="1" fill-rule="nonzero"/><path fill="#454545" d="M 811.546875 540.988281 L 1043.898438 540.988281 C 1068.488281 540.988281 1088.15625 555.734375 1088.15625 574.171875 C 1088.15625 592.605469 1068.488281 607.355469 1043.898438 607.355469 L 811.546875 607.355469 Z M 811.546875 540.988281 " fill-opacity="1" fill-rule="nonzero"/><path fill="#0071bc" d="M 750.078125 325.902344 L 902.519531 425.453125 L 597.636719 425.453125 Z M 750.078125 325.902344 " fill-opacity="1" fill-rule="nonzero"/><path fill="#0071bc" d="M 595.175781 438.972656 L 904.980469 438.972656 L 877.933594 501.65625 L 622.222656 501.65625 Z M 595.175781 438.972656 " fill-opacity="1" fill-rule="nonzero"/><path fill="#0071bc" d="M 671.398438 516.40625 L 828.757812 516.40625 L 848.429688 697.078125 L 651.726562 697.078125 Z M 671.398438 516.40625 " fill-opacity="1" fill-rule="nonzero"/><path fill="#0071bc" d="M 627.140625 711.828125 L 873.015625 711.828125 L 902.519531 775.738281 L 597.636719 775.738281 Z M 627.140625 711.828125 " fill-opacity="1" fill-rule="nonzero"/><path fill="#0071bc" d="M 575.507812 789.257812 L 924.648438 789.257812 C 924.972656 789.257812 925.292969 789.289062 925.609375 789.351562 C 925.925781 789.414062 926.234375 789.507812 926.53125 789.632812 C 926.828125 789.753906 927.113281 789.90625 927.382812 790.085938 C 927.648438 790.265625 927.898438 790.46875 928.125 790.695312 C 928.355469 790.925781 928.558594 791.171875 928.738281 791.441406 C 928.917969 791.710938 929.070312 791.992188 929.191406 792.292969 C 929.316406 792.589844 929.410156 792.898438 929.472656 793.214844 C 929.535156 793.53125 929.566406 793.851562 929.566406 794.171875 L 929.566406 821.210938 C 929.566406 821.535156 929.535156 821.855469 929.472656 822.171875 C 929.410156 822.488281 929.316406 822.796875 929.191406 823.09375 C 929.070312 823.390625 928.917969 823.675781 928.738281 823.945312 C 928.558594 824.210938 928.355469 824.460938 928.125 824.6875 C 927.898438 824.917969 927.648438 825.121094 927.382812 825.300781 C 927.113281 825.480469 926.828125 825.632812 926.53125 825.753906 C 926.234375 825.878906 925.925781 825.972656 925.609375 826.035156 C 925.292969 826.097656 924.972656 826.128906 924.648438 826.128906 L 575.507812 826.128906 C 575.183594 826.128906 574.863281 826.097656 574.546875 826.035156 C 574.230469 825.972656 573.921875 825.878906 573.625 825.753906 C 573.328125 825.632812 573.042969 825.480469 572.773438 825.300781 C 572.507812 825.121094 572.257812 824.917969 572.03125 824.6875 C 571.800781 824.460938 571.597656 824.210938 571.417969 823.945312 C 571.238281 823.675781 571.085938 823.390625 570.964844 823.09375 C 570.839844 822.796875 570.746094 822.488281 570.683594 822.171875 C 570.621094 821.855469 570.589844 821.535156 570.589844 821.210938 L 570.589844 794.171875 C 570.589844 793.851562 570.621094 793.53125 570.683594 793.214844 C 570.746094 792.898438 570.839844 792.589844 570.964844 792.292969 C 571.085938 791.992188 571.238281 791.710938 571.417969 791.441406 C 571.597656 791.171875 571.800781 790.925781 572.03125 790.695312 C 572.257812 790.46875 572.507812 790.265625 572.773438 790.085938 C 573.042969 789.90625 573.328125 789.753906 573.625 789.632812 C 573.921875 789.507812 574.230469 789.414062 574.546875 789.351562 C 574.863281 789.289062 575.183594 789.257812 575.507812 789.257812 Z M 575.507812 789.257812 " fill-opacity="1" fill-rule="nonzero"/><g fill="#0071bc" fill-opacity="1"><g transform="translate(175.959932, 998.188594)"><g><path d="M 71.9375 -50.859375 C 71.9375 -46.066406 70.785156 -41.785156 68.484375 -38.015625 C 66.191406 -34.253906 62.910156 -31.34375 58.640625 -29.28125 C 54.367188 -27.21875 49.289062 -26.1875 43.40625 -26.1875 L 23.984375 -26.1875 L 23.984375 0 L 7.609375 0 L 7.609375 -74.40625 L 42.734375 -74.40625 C 52.097656 -74.40625 59.304688 -72.351562 64.359375 -68.25 C 69.410156 -64.15625 71.9375 -58.359375 71.9375 -50.859375 Z M 55.453125 -50.59375 C 55.453125 -58.40625 50.601562 -62.3125 40.90625 -62.3125 L 23.984375 -62.3125 L 23.984375 -38.1875 L 41.34375 -38.1875 C 45.863281 -38.1875 49.34375 -39.25 51.78125 -41.375 C 54.226562 -43.507812 55.453125 -46.582031 55.453125 -50.59375 Z M 55.453125 -50.59375 "/></g></g></g><g fill="#0071bc" fill-opacity="1"><g transform="translate(260.819437, 998.188594)"><g><path d="M 7.609375 0 L 7.609375 -74.40625 L 23.984375 -74.40625 L 23.984375 0 Z M 7.609375 0 "/></g></g></g><g fill="#0071bc" fill-opacity="1"><g transform="translate(301.443195, 998.188594)"><g><path d="M 7.609375 0 L 7.609375 -74.40625 L 23.984375 -74.40625 L 23.984375 -12.046875 L 65.9375 -12.046875 L 65.9375 0 Z M 7.609375 0 "/></g></g></g><g fill="#0071bc" fill-opacity="1"><g transform="translate(379.919887, 998.188594)"><g><path d="M 7.609375 0 L 7.609375 -74.40625 L 23.984375 -74.40625 L 23.984375 -12.046875 L 65.9375 -12.046875 L 65.9375 0 Z M 7.609375 0 "/></g></g></g><g fill="#0071bc" fill-opacity="1"><g transform="translate(458.396568, 998.188594)"><g><path d="M 62.890625 0 L 55.953125 -19.015625 L 26.140625 -19.015625 L 19.203125 0 L 2.828125 0 L 31.359375 -74.40625 L 50.671875 -74.40625 L 79.09375 0 Z M 41.015625 -62.953125 L 40.6875 -61.78125 C 40.3125 -60.519531 39.863281 -59.078125 39.34375 -57.453125 C 38.832031 -55.835938 35.65625 -46.929688 29.8125 -30.734375 L 52.28125 -30.734375 L 44.5625 -52.125 L 42.1875 -59.3125 Z M 41.015625 -62.953125 "/></g></g></g><g fill="#0071bc" fill-opacity="1"><g transform="translate(549.527891, 998.188594)"><g><path d="M 61.328125 0 L 43.1875 -28.25 L 23.984375 -28.25 L 23.984375 0 L 7.609375 0 L 7.609375 -74.40625 L 46.671875 -74.40625 C 56.003906 -74.40625 63.203125 -72.492188 68.265625 -68.671875 C 73.335938 -64.859375 75.875 -59.378906 75.875 -52.234375 C 75.875 -47.015625 74.316406 -42.515625 71.203125 -38.734375 C 68.097656 -34.953125 63.898438 -32.460938 58.609375 -31.265625 L 79.765625 0 Z M 59.390625 -51.59375 C 59.390625 -58.738281 54.578125 -62.3125 44.953125 -62.3125 L 23.984375 -62.3125 L 23.984375 -40.34375 L 45.40625 -40.34375 C 49.988281 -40.34375 53.460938 -41.328125 55.828125 -43.296875 C 58.203125 -45.273438 59.390625 -48.039062 59.390625 -51.59375 Z M 59.390625 -51.59375 "/></g></g></g><g fill="#454545" fill-opacity="1"><g transform="translate(682.4541, 998.188594)"><g><path d="M 76.25 -37.546875 C 76.25 -29.804688 74.78125 -22.992188 71.84375 -17.109375 C 68.914062 -11.234375 64.71875 -6.734375 59.25 -3.609375 C 53.78125 -0.492188 47.40625 1.0625 40.125 1.0625 C 28.925781 1.0625 20.144531 -2.378906 13.78125 -9.265625 C 7.425781 -16.148438 4.25 -25.578125 4.25 -37.546875 C 4.25 -49.484375 7.421875 -58.796875 13.765625 -65.484375 C 20.109375 -72.171875 28.925781 -75.515625 40.21875 -75.515625 C 51.519531 -75.515625 60.347656 -72.132812 66.703125 -65.375 C 73.066406 -58.613281 76.25 -49.335938 76.25 -37.546875 Z M 61.015625 -37.546875 C 61.015625 -45.578125 59.191406 -51.867188 55.546875 -56.421875 C 51.910156 -60.984375 46.800781 -63.265625 40.21875 -63.265625 C 33.539062 -63.265625 28.378906 -61 24.734375 -56.46875 C 21.097656 -51.945312 19.28125 -45.640625 19.28125 -37.546875 C 19.28125 -29.378906 21.140625 -22.945312 24.859375 -18.25 C 28.585938 -13.550781 33.675781 -11.203125 40.125 -11.203125 C 46.800781 -11.203125 51.953125 -13.488281 55.578125 -18.0625 C 59.203125 -22.632812 61.015625 -29.128906 61.015625 -37.546875 Z M 61.015625 -37.546875 "/></g></g></g><g fill="#454545" fill-opacity="1"><g transform="translate(771.289588, 998.188594)"><g><path d="M 42.203125 0 L 27.0625 0 L 0.703125 -74.40625 L 16.296875 -74.40625 L 30.96875 -26.609375 C 31.875 -23.515625 33.117188 -18.832031 34.703125 -12.5625 L 35.765625 -17.109375 L 38.359375 -26.609375 L 52.96875 -74.40625 L 68.40625 -74.40625 Z M 42.203125 0 "/></g></g></g><g fill="#454545" fill-opacity="1"><g transform="translate(848.640711, 998.188594)"><g><path d="M 6.9375 0 L 6.9375 -74.40625 L 63 -74.40625 L 63 -62.375 L 21.859375 -62.375 L 21.859375 -43.671875 L 59.90625 -43.671875 L 59.90625 -31.640625 L 21.859375 -31.640625 L 21.859375 -12.046875 L 65.0625 -12.046875 L 65.0625 0 Z M 6.9375 0 "/></g></g></g><g fill="#454545" fill-opacity="1"><g transform="translate(925.991833, 998.188594)"><g><path d="M 55.90625 0 L 39.359375 -28.25 L 21.859375 -28.25 L 21.859375 0 L 6.9375 0 L 6.9375 -74.40625 L 42.546875 -74.40625 C 51.046875 -74.40625 57.609375 -72.492188 62.234375 -68.671875 C 66.859375 -64.859375 69.171875 -59.378906 69.171875 -52.234375 C 69.171875 -47.015625 67.753906 -42.515625 64.921875 -38.734375 C 62.085938 -34.953125 58.257812 -32.460938 53.4375 -31.265625 L 72.703125 0 Z M 54.140625 -51.59375 C 54.140625 -58.738281 49.753906 -62.3125 40.984375 -62.3125 L 21.859375 -62.3125 L 21.859375 -40.34375 L 41.390625 -40.34375 C 45.566406 -40.34375 48.734375 -41.328125 50.890625 -43.296875 C 53.054688 -45.273438 54.140625 -48.039062 54.140625 -51.59375 Z M 54.140625 -51.59375 "/></g></g></g><g fill="#454545" fill-opacity="1"><g transform="translate(1009.059842, 998.188594)"><g><path d="M 65.0625 -21.4375 C 65.0625 -14.15625 62.472656 -8.582031 57.296875 -4.71875 C 52.117188 -0.863281 44.523438 1.0625 34.515625 1.0625 C 25.367188 1.0625 18.195312 -0.625 13 -4 C 7.8125 -7.382812 4.472656 -12.507812 2.984375 -19.375 L 17.40625 -21.859375 C 18.382812 -17.921875 20.289062 -15.0625 23.125 -13.28125 C 25.957031 -11.5 29.882812 -10.609375 34.90625 -10.609375 C 45.332031 -10.609375 50.546875 -13.921875 50.546875 -20.546875 C 50.546875 -22.660156 49.945312 -24.398438 48.75 -25.765625 C 47.550781 -27.140625 45.863281 -28.285156 43.6875 -29.203125 C 41.507812 -30.117188 37.335938 -31.226562 31.171875 -32.53125 C 25.835938 -33.832031 22.125 -34.878906 20.03125 -35.671875 C 17.945312 -36.460938 16.0625 -37.394531 14.375 -38.46875 C 12.6875 -39.539062 11.25 -40.832031 10.0625 -42.34375 C 8.882812 -43.863281 7.96875 -45.644531 7.3125 -47.6875 C 6.65625 -49.726562 6.328125 -52.070312 6.328125 -54.71875 C 6.328125 -61.4375 8.742188 -66.582031 13.578125 -70.15625 C 18.421875 -73.726562 25.460938 -75.515625 34.703125 -75.515625 C 43.546875 -75.515625 50.1875 -74.070312 54.625 -71.1875 C 59.0625 -68.300781 61.921875 -63.53125 63.203125 -56.875 L 48.71875 -54.8125 C 47.976562 -58.019531 46.46875 -60.429688 44.1875 -62.046875 C 41.914062 -63.671875 38.65625 -64.484375 34.40625 -64.484375 C 25.363281 -64.484375 20.84375 -61.523438 20.84375 -55.609375 C 20.84375 -53.671875 21.320312 -52.085938 22.28125 -50.859375 C 23.25 -49.628906 24.675781 -48.582031 26.5625 -47.71875 C 28.445312 -46.851562 32.273438 -45.769531 38.046875 -44.46875 C 44.898438 -42.957031 49.800781 -41.554688 52.75 -40.265625 C 55.695312 -38.984375 58.03125 -37.488281 59.75 -35.78125 C 61.476562 -34.070312 62.796875 -32.03125 63.703125 -29.65625 C 64.609375 -27.28125 65.0625 -24.539062 65.0625 -21.4375 Z M 65.0625 -21.4375 "/></g></g></g><g fill="#454545" fill-opacity="1"><g transform="translate(1086.410953, 998.188594)"><g><path d="M 6.9375 0 L 6.9375 -74.40625 L 63 -74.40625 L 63 -62.375 L 21.859375 -62.375 L 21.859375 -43.671875 L 59.90625 -43.671875 L 59.90625 -31.640625 L 21.859375 -31.640625 L 21.859375 -12.046875 L 65.0625 -12.046875 L 65.0625 0 Z M 6.9375 0 "/></g></g></g><g fill="#454545" fill-opacity="1"><g transform="translate(1163.762064, 998.188594)"><g><path d="M 57.328125 0 L 51 -19.015625 L 23.828125 -19.015625 L 17.5 0 L 2.578125 0 L 28.59375 -74.40625 L 46.203125 -74.40625 L 72.109375 0 Z M 37.390625 -62.953125 L 37.09375 -61.78125 C 36.75 -60.519531 36.34375 -59.078125 35.875 -57.453125 C 35.40625 -55.835938 32.503906 -46.929688 27.171875 -30.734375 L 47.65625 -30.734375 L 40.625 -52.125 L 38.453125 -59.3125 Z M 37.390625 -62.953125 "/></g></g></g><g fill="#454545" fill-opacity="1"><g transform="translate(1246.830074, 998.188594)"><g><path d="M 65.0625 -21.4375 C 65.0625 -14.15625 62.472656 -8.582031 57.296875 -4.71875 C 52.117188 -0.863281 44.523438 1.0625 34.515625 1.0625 C 25.367188 1.0625 18.195312 -0.625 13 -4 C 7.8125 -7.382812 4.472656 -12.507812 2.984375 -19.375 L 17.40625 -21.859375 C 18.382812 -17.921875 20.289062 -15.0625 23.125 -13.28125 C 25.957031 -11.5 29.882812 -10.609375 34.90625 -10.609375 C 45.332031 -10.609375 50.546875 -13.921875 50.546875 -20.546875 C 50.546875 -22.660156 49.945312 -24.398438 48.75 -25.765625 C 47.550781 -27.140625 45.863281 -28.285156 43.6875 -29.203125 C 41.507812 -30.117188 37.335938 -31.226562 31.171875 -32.53125 C 25.835938 -33.832031 22.125 -34.878906 20.03125 -35.671875 C 17.945312 -36.460938 16.0625 -37.394531 14.375 -38.46875 C 12.6875 -39.539062 11.25 -40.832031 10.0625 -42.34375 C 8.882812 -43.863281 7.96875 -45.644531 7.3125 -47.6875 C 6.65625 -49.726562 6.328125 -52.070312 6.328125 -54.71875 C 6.328125 -61.4375 8.742188 -66.582031 13.578125 -70.15625 C 18.421875 -73.726562 25.460938 -75.515625 34.703125 -75.515625 C 43.546875 -75.515625 50.1875 -74.070312 54.625 -71.1875 C 59.0625 -68.300781 61.921875 -63.53125 63.203125 -56.875 L 48.71875 -54.8125 C 47.976562 -58.019531 46.46875 -60.429688 44.1875 -62.046875 C 41.914062 -63.671875 38.65625 -64.484375 34.40625 -64.484375 C 25.363281 -64.484375 20.84375 -61.523438 20.84375 -55.609375 C 20.84375 -53.671875 21.320312 -52.085938 22.28125 -50.859375 C 23.25 -49.628906 24.675781 -48.582031 26.5625 -47.71875 C 28.445312 -46.851562 32.273438 -45.769531 38.046875 -44.46875 C 44.898438 -42.957031 49.800781 -41.554688 52.75 -40.265625 C 55.695312 -38.984375 58.03125 -37.488281 59.75 -35.78125 C 61.476562 -34.070312 62.796875 -32.03125 63.703125 -29.65625 C 64.609375 -27.28125 65.0625 -24.539062 65.0625 -21.4375 Z M 65.0625 -21.4375 "/></g></g></g><g fill="#454545" fill-opacity="1"><g transform="translate(232.508879, 1095.287986)"><g><path d="M 3.546875 0 L 3.546875 -26.203125 L 26.15625 -26.203125 L 26.15625 -23.3125 L 7.59375 -23.3125 L 7.59375 -14.90625 L 24.890625 -14.90625 L 24.890625 -12.03125 L 7.59375 -12.03125 L 7.59375 -2.90625 L 27.015625 -2.90625 L 27.015625 0 Z M 3.546875 0 "/></g></g></g><g fill="#454545" fill-opacity="1"><g transform="translate(268.655307, 1095.287986)"><g><path d="M 29.203125 -13.375 C 29.203125 -10.664062 28.601562 -8.296875 27.40625 -6.265625 C 26.207031 -4.242188 24.503906 -2.691406 22.296875 -1.609375 C 20.097656 -0.535156 17.5625 0 14.6875 0 L 3.546875 0 L 3.546875 -26.203125 L 13.40625 -26.203125 C 18.445312 -26.203125 22.335938 -25.085938 25.078125 -22.859375 C 27.828125 -20.640625 29.203125 -17.476562 29.203125 -13.375 Z M 25.140625 -13.375 C 25.140625 -16.625 24.125 -19.097656 22.09375 -20.796875 C 20.070312 -22.503906 17.144531 -23.359375 13.3125 -23.359375 L 7.59375 -23.359375 L 7.59375 -2.84375 L 14.234375 -2.84375 C 16.410156 -2.84375 18.328125 -3.265625 19.984375 -4.109375 C 21.640625 -4.953125 22.910156 -6.164062 23.796875 -7.75 C 24.691406 -9.34375 25.140625 -11.21875 25.140625 -13.375 Z M 25.140625 -13.375 "/></g></g></g><g fill="#454545" fill-opacity="1"><g transform="translate(307.190904, 1095.287986)"><g><path d="M 15.453125 0.375 C 13.015625 0.375 10.882812 -0.015625 9.0625 -0.796875 C 7.25 -1.578125 5.84375 -2.710938 4.84375 -4.203125 C 3.84375 -5.691406 3.34375 -7.46875 3.34375 -9.53125 L 3.34375 -26.203125 L 7.375 -26.203125 L 7.375 -9.828125 C 7.375 -7.429688 8.0625 -5.613281 9.4375 -4.375 C 10.820312 -3.132812 12.820312 -2.515625 15.4375 -2.515625 C 18.113281 -2.515625 20.191406 -3.15625 21.671875 -4.4375 C 23.160156 -5.71875 23.90625 -7.59375 23.90625 -10.0625 L 23.90625 -26.203125 L 27.921875 -26.203125 L 27.921875 -9.859375 C 27.921875 -7.734375 27.410156 -5.898438 26.390625 -4.359375 C 25.367188 -2.828125 23.925781 -1.65625 22.0625 -0.84375 C 20.195312 -0.03125 17.992188 0.375 15.453125 0.375 Z M 15.453125 0.375 "/></g></g></g><g fill="#454545" fill-opacity="1"><g transform="translate(345.726501, 1095.287986)"><g><path d="M 16.75 -23.703125 C 13.445312 -23.703125 10.878906 -22.765625 9.046875 -20.890625 C 7.210938 -19.023438 6.296875 -16.46875 6.296875 -13.21875 C 6.296875 -10.007812 7.25 -7.425781 9.15625 -5.46875 C 11.070312 -3.519531 13.65625 -2.546875 16.90625 -2.546875 C 21.082031 -2.546875 24.222656 -4.363281 26.328125 -8 L 29.625 -6.546875 C 28.394531 -4.285156 26.671875 -2.566406 24.453125 -1.390625 C 22.234375 -0.210938 19.65625 0.375 16.71875 0.375 C 13.71875 0.375 11.117188 -0.171875 8.921875 -1.265625 C 6.734375 -2.367188 5.066406 -3.941406 3.921875 -5.984375 C 2.773438 -8.023438 2.203125 -10.4375 2.203125 -13.21875 C 2.203125 -17.40625 3.484375 -20.679688 6.046875 -23.046875 C 8.609375 -25.410156 12.160156 -26.59375 16.703125 -26.59375 C 19.867188 -26.59375 22.515625 -26.046875 24.640625 -24.953125 C 26.773438 -23.867188 28.34375 -22.253906 29.34375 -20.109375 L 25.515625 -18.984375 C 24.828125 -20.515625 23.71875 -21.679688 22.1875 -22.484375 C 20.65625 -23.296875 18.84375 -23.703125 16.75 -23.703125 Z M 16.75 -23.703125 "/></g></g></g><g fill="#454545" fill-opacity="1"><g transform="translate(384.262098, 1095.287986)"><g><path d="M 24.671875 0 L 21.265625 -7.65625 L 7.703125 -7.65625 L 4.265625 0 L 0.078125 0 L 12.234375 -26.203125 L 16.828125 -26.203125 L 28.796875 0 Z M 14.484375 -23.53125 L 14.296875 -23.015625 C 13.941406 -21.984375 13.421875 -20.660156 12.734375 -19.046875 L 8.921875 -10.4375 L 20.0625 -10.4375 L 16.234375 -19.078125 C 15.835938 -19.941406 15.441406 -20.910156 15.046875 -21.984375 Z M 14.484375 -23.53125 "/></g></g></g><g fill="#454545" fill-opacity="1"><g transform="translate(417.194588, 1095.287986)"><g><path d="M 15.21875 -23.3125 L 15.21875 0 L 11.203125 0 L 11.203125 -23.3125 L 0.96875 -23.3125 L 0.96875 -26.203125 L 25.453125 -26.203125 L 25.453125 -23.3125 Z M 15.21875 -23.3125 "/></g></g></g><g fill="#454545" fill-opacity="1"><g transform="translate(450.90956, 1095.287986)"><g><path d="M 4 0 L 4 -26.203125 L 8.03125 -26.203125 L 8.03125 0 Z M 4 0 "/></g></g></g><g fill="#454545" fill-opacity="1"><g transform="translate(470.205018, 1095.287986)"><g><path d="M 31.609375 -13.21875 C 31.609375 -10.476562 31.007812 -8.078125 29.8125 -6.015625 C 28.625 -3.960938 26.914062 -2.382812 24.6875 -1.28125 C 22.46875 -0.175781 19.84375 0.375 16.8125 0.375 C 13.75 0.375 11.109375 -0.171875 8.890625 -1.265625 C 6.671875 -2.359375 4.972656 -3.9375 3.796875 -6 C 2.628906 -8.0625 2.046875 -10.46875 2.046875 -13.21875 C 2.046875 -17.414062 3.347656 -20.691406 5.953125 -23.046875 C 8.566406 -25.410156 12.195312 -26.59375 16.84375 -26.59375 C 19.875 -26.59375 22.503906 -26.0625 24.734375 -25 C 26.960938 -23.945312 28.664062 -22.410156 29.84375 -20.390625 C 31.019531 -18.367188 31.609375 -15.976562 31.609375 -13.21875 Z M 27.484375 -13.21875 C 27.484375 -16.476562 26.554688 -19.039062 24.703125 -20.90625 C 22.847656 -22.769531 20.226562 -23.703125 16.84375 -23.703125 C 13.4375 -23.703125 10.800781 -22.78125 8.9375 -20.9375 C 7.082031 -19.101562 6.15625 -16.53125 6.15625 -13.21875 C 6.15625 -9.9375 7.09375 -7.332031 8.96875 -5.40625 C 10.851562 -3.476562 13.46875 -2.515625 16.8125 -2.515625 C 20.25 -2.515625 22.882812 -3.445312 24.71875 -5.3125 C 26.5625 -7.175781 27.484375 -9.8125 27.484375 -13.21875 Z M 27.484375 -13.21875 "/></g></g></g><g fill="#454545" fill-opacity="1"><g transform="translate(511.150896, 1095.287986)"><g><path d="M 22.875 0 L 6.9375 -22.328125 L 7.046875 -20.515625 L 7.140625 -17.40625 L 7.140625 0 L 3.546875 0 L 3.546875 -26.203125 L 8.25 -26.203125 L 24.359375 -3.734375 C 24.179688 -6.171875 24.09375 -7.929688 24.09375 -9.015625 L 24.09375 -26.203125 L 27.734375 -26.203125 L 27.734375 0 Z M 22.875 0 "/></g></g></g><g fill="#454545" fill-opacity="1"><g transform="translate(549.686506, 1095.287986)"><g/></g></g><g fill="#454545" fill-opacity="1"><g transform="translate(568.981938, 1095.287986)"><g><path d="M 25.21875 0.21875 C 22.726562 0.21875 20.628906 -0.566406 18.921875 -2.140625 C 17.859375 -1.335938 16.648438 -0.71875 15.296875 -0.28125 C 13.953125 0.152344 12.539062 0.375 11.0625 0.375 C 8.03125 0.375 5.679688 -0.265625 4.015625 -1.546875 C 2.347656 -2.835938 1.515625 -4.625 1.515625 -6.90625 C 1.515625 -10.351562 3.9375 -13.007812 8.78125 -14.875 C 8.3125 -15.644531 7.90625 -16.554688 7.5625 -17.609375 C 7.226562 -18.671875 7.0625 -19.632812 7.0625 -20.5 C 7.0625 -22.351562 7.707031 -23.789062 9 -24.8125 C 10.289062 -25.84375 12.117188 -26.359375 14.484375 -26.359375 C 16.609375 -26.359375 18.320312 -25.882812 19.625 -24.9375 C 20.925781 -24 21.578125 -22.710938 21.578125 -21.078125 C 21.578125 -19.609375 20.929688 -18.300781 19.640625 -17.15625 C 18.359375 -16.019531 16.125 -14.894531 12.9375 -13.78125 C 14.5 -11.238281 16.5625 -8.6875 19.125 -6.125 C 20.71875 -8.175781 21.925781 -10.71875 22.75 -13.75 L 25.8125 -12.953125 C 24.925781 -9.859375 23.429688 -6.945312 21.328125 -4.21875 C 22.679688 -3.007812 24.148438 -2.40625 25.734375 -2.40625 C 26.734375 -2.40625 27.554688 -2.503906 28.203125 -2.703125 L 28.203125 -0.1875 C 27.410156 0.0820312 26.414062 0.21875 25.21875 0.21875 Z M 18.375 -21.078125 C 18.375 -21.960938 18.019531 -22.6875 17.3125 -23.25 C 16.601562 -23.820312 15.644531 -24.109375 14.4375 -24.109375 C 13.082031 -24.109375 12.050781 -23.785156 11.34375 -23.140625 C 10.644531 -22.503906 10.296875 -21.625 10.296875 -20.5 C 10.296875 -19.082031 10.753906 -17.566406 11.671875 -15.953125 C 13.515625 -16.609375 14.867188 -17.175781 15.734375 -17.65625 C 16.609375 -18.144531 17.265625 -18.664062 17.703125 -19.21875 C 18.148438 -19.78125 18.375 -20.398438 18.375 -21.078125 Z M 16.8125 -4.03125 C 14.019531 -6.9375 11.769531 -9.769531 10.0625 -12.53125 C 6.738281 -11.289062 5.078125 -9.425781 5.078125 -6.9375 C 5.078125 -5.4375 5.617188 -4.25 6.703125 -3.375 C 7.796875 -2.5 9.289062 -2.0625 11.1875 -2.0625 C 12.1875 -2.0625 13.1875 -2.234375 14.1875 -2.578125 C 15.1875 -2.921875 16.0625 -3.40625 16.8125 -4.03125 Z M 16.8125 -4.03125 "/></g></g></g><g fill="#454545" fill-opacity="1"><g transform="translate(605.128378, 1095.287986)"><g/></g></g><g fill="#454545" fill-opacity="1"><g transform="translate(624.423784, 1095.287986)"><g><path d="M 7.59375 -23.3125 L 7.59375 -13.5625 L 24.203125 -13.5625 L 24.203125 -10.625 L 7.59375 -10.625 L 7.59375 0 L 3.546875 0 L 3.546875 -26.203125 L 24.71875 -26.203125 L 24.71875 -23.3125 Z M 7.59375 -23.3125 "/></g></g></g><g fill="#454545" fill-opacity="1"><g transform="translate(658.138781, 1095.287986)"><g><path d="M 31.609375 -13.21875 C 31.609375 -10.476562 31.007812 -8.078125 29.8125 -6.015625 C 28.625 -3.960938 26.914062 -2.382812 24.6875 -1.28125 C 22.46875 -0.175781 19.84375 0.375 16.8125 0.375 C 13.75 0.375 11.109375 -0.171875 8.890625 -1.265625 C 6.671875 -2.359375 4.972656 -3.9375 3.796875 -6 C 2.628906 -8.0625 2.046875 -10.46875 2.046875 -13.21875 C 2.046875 -17.414062 3.347656 -20.691406 5.953125 -23.046875 C 8.566406 -25.410156 12.195312 -26.59375 16.84375 -26.59375 C 19.875 -26.59375 22.503906 -26.0625 24.734375 -25 C 26.960938 -23.945312 28.664062 -22.410156 29.84375 -20.390625 C 31.019531 -18.367188 31.609375 -15.976562 31.609375 -13.21875 Z M 27.484375 -13.21875 C 27.484375 -16.476562 26.554688 -19.039062 24.703125 -20.90625 C 22.847656 -22.769531 20.226562 -23.703125 16.84375 -23.703125 C 13.4375 -23.703125 10.800781 -22.78125 8.9375 -20.9375 C 7.082031 -19.101562 6.15625 -16.53125 6.15625 -13.21875 C 6.15625 -9.9375 7.09375 -7.332031 8.96875 -5.40625 C 10.851562 -3.476562 13.46875 -2.515625 16.8125 -2.515625 C 20.25 -2.515625 22.882812 -3.445312 24.71875 -5.3125 C 26.5625 -7.175781 27.484375 -9.8125 27.484375 -13.21875 Z M 27.484375 -13.21875 "/></g></g></g><g fill="#454545" fill-opacity="1"><g transform="translate(699.084685, 1095.287986)"><g><path d="M 24.609375 0 L 16.875 -10.875 L 7.59375 -10.875 L 7.59375 0 L 3.546875 0 L 3.546875 -26.203125 L 17.5625 -26.203125 C 20.914062 -26.203125 23.503906 -25.539062 25.328125 -24.21875 C 27.160156 -22.90625 28.078125 -21.070312 28.078125 -18.71875 C 28.078125 -16.769531 27.429688 -15.128906 26.140625 -13.796875 C 24.847656 -12.472656 23.066406 -11.640625 20.796875 -11.296875 L 29.265625 0 Z M 24.015625 -18.671875 C 24.015625 -20.203125 23.425781 -21.363281 22.25 -22.15625 C 21.070312 -22.957031 19.378906 -23.359375 17.171875 -23.359375 L 7.59375 -23.359375 L 7.59375 -13.6875 L 17.328125 -13.6875 C 19.460938 -13.6875 21.109375 -14.125 22.265625 -15 C 23.429688 -15.875 24.015625 -17.097656 24.015625 -18.671875 Z M 24.015625 -18.671875 "/></g></g></g><g fill="#454545" fill-opacity="1"><g transform="translate(737.620295, 1095.287986)"><g><path d="M 3.546875 0 L 3.546875 -26.203125 L 26.15625 -26.203125 L 26.15625 -23.3125 L 7.59375 -23.3125 L 7.59375 -14.90625 L 24.890625 -14.90625 L 24.890625 -12.03125 L 7.59375 -12.03125 L 7.59375 -2.90625 L 27.015625 -2.90625 L 27.015625 0 Z M 3.546875 0 "/></g></g></g><g fill="#454545" fill-opacity="1"><g transform="translate(773.766709, 1095.287986)"><g><path d="M 4 0 L 4 -26.203125 L 8.03125 -26.203125 L 8.03125 0 Z M 4 0 "/></g></g></g><g fill="#454545" fill-opacity="1"><g transform="translate(793.062167, 1095.287986)"><g><path d="M 2.171875 -13.21875 C 2.171875 -17.476562 3.46875 -20.769531 6.0625 -23.09375 C 8.65625 -25.425781 12.300781 -26.59375 17 -26.59375 C 20.289062 -26.59375 22.96875 -26.101562 25.03125 -25.125 C 27.09375 -24.144531 28.675781 -22.578125 29.78125 -20.421875 L 25.9375 -19.421875 C 25.09375 -20.910156 23.925781 -21.992188 22.4375 -22.671875 C 20.945312 -23.359375 19.097656 -23.703125 16.890625 -23.703125 C 13.453125 -23.703125 10.820312 -22.785156 9 -20.953125 C 7.1875 -19.117188 6.28125 -16.539062 6.28125 -13.21875 C 6.28125 -9.914062 7.242188 -7.304688 9.171875 -5.390625 C 11.109375 -3.472656 13.78125 -2.515625 17.1875 -2.515625 C 19.132812 -2.515625 20.945312 -2.773438 22.625 -3.296875 C 24.3125 -3.816406 25.675781 -4.519531 26.71875 -5.40625 L 26.71875 -10.140625 L 17.828125 -10.140625 L 17.828125 -13.109375 L 30.4375 -13.109375 L 30.4375 -4.078125 C 28.863281 -2.660156 26.929688 -1.5625 24.640625 -0.78125 C 22.347656 -0.0078125 19.863281 0.375 17.1875 0.375 C 14.070312 0.375 11.382812 -0.171875 9.125 -1.265625 C 6.875 -2.359375 5.148438 -3.929688 3.953125 -5.984375 C 2.765625 -8.035156 2.171875 -10.445312 2.171875 -13.21875 Z M 2.171875 -13.21875 "/></g></g></g><g fill="#454545" fill-opacity="1"><g transform="translate(834.008045, 1095.287986)"><g><path d="M 22.875 0 L 6.9375 -22.328125 L 7.046875 -20.515625 L 7.140625 -17.40625 L 7.140625 0 L 3.546875 0 L 3.546875 -26.203125 L 8.25 -26.203125 L 24.359375 -3.734375 C 24.179688 -6.171875 24.09375 -7.929688 24.09375 -9.015625 L 24.09375 -26.203125 L 27.734375 -26.203125 L 27.734375 0 Z M 22.875 0 "/></g></g></g><g fill="#454545" fill-opacity="1"><g transform="translate(872.543655, 1095.287986)"><g/></g></g><g fill="#454545" fill-opacity="1"><g transform="translate(891.839061, 1095.287986)"><g><path d="M 3.546875 0 L 3.546875 -26.203125 L 26.15625 -26.203125 L 26.15625 -23.3125 L 7.59375 -23.3125 L 7.59375 -14.90625 L 24.890625 -14.90625 L 24.890625 -12.03125 L 7.59375 -12.03125 L 7.59375 -2.90625 L 27.015625 -2.90625 L 27.015625 0 Z M 3.546875 0 "/></g></g></g><g fill="#454545" fill-opacity="1"><g transform="translate(927.985527, 1095.287986)"><g><path d="M 28.875 0 L 28.875 -17.484375 C 28.875 -19.421875 28.9375 -21.28125 29.0625 -23.0625 C 28.375 -20.84375 27.753906 -19.109375 27.203125 -17.859375 L 19.515625 0 L 16.6875 0 L 8.875 -17.859375 L 7.703125 -21.015625 L 7 -23.0625 L 7.0625 -21 L 7.140625 -17.484375 L 7.140625 0 L 3.546875 0 L 3.546875 -26.203125 L 8.859375 -26.203125 L 16.78125 -8.03125 C 17.0625 -7.300781 17.332031 -6.515625 17.59375 -5.671875 C 17.851562 -4.835938 18.03125 -4.238281 18.125 -3.875 C 18.226562 -4.363281 18.457031 -5.113281 18.8125 -6.125 C 19.175781 -7.132812 19.425781 -7.769531 19.5625 -8.03125 L 27.328125 -26.203125 L 32.515625 -26.203125 L 32.515625 0 Z M 28.875 0 "/></g></g></g><g fill="#454545" fill-opacity="1"><g transform="translate(971.320549, 1095.287986)"><g><path d="M 26.59375 -18.328125 C 26.59375 -15.835938 25.671875 -13.863281 23.828125 -12.40625 C 21.992188 -10.945312 19.5 -10.21875 16.34375 -10.21875 L 7.59375 -10.21875 L 7.59375 0 L 3.546875 0 L 3.546875 -26.203125 L 16.09375 -26.203125 C 19.425781 -26.203125 22.007812 -25.515625 23.84375 -24.140625 C 25.675781 -22.765625 26.59375 -20.828125 26.59375 -18.328125 Z M 22.53125 -18.28125 C 22.53125 -21.664062 20.222656 -23.359375 15.609375 -23.359375 L 7.59375 -23.359375 L 7.59375 -13.015625 L 15.765625 -13.015625 C 20.273438 -13.015625 22.53125 -14.769531 22.53125 -18.28125 Z M 22.53125 -18.28125 "/></g></g></g><g fill="#454545" fill-opacity="1"><g transform="translate(1007.467015, 1095.287986)"><g><path d="M 3.546875 0 L 3.546875 -26.203125 L 7.59375 -26.203125 L 7.59375 -2.90625 L 22.640625 -2.90625 L 22.640625 0 Z M 3.546875 0 "/></g></g></g><g fill="#454545" fill-opacity="1"><g transform="translate(1038.813966, 1095.287986)"><g><path d="M 31.609375 -13.21875 C 31.609375 -10.476562 31.007812 -8.078125 29.8125 -6.015625 C 28.625 -3.960938 26.914062 -2.382812 24.6875 -1.28125 C 22.46875 -0.175781 19.84375 0.375 16.8125 0.375 C 13.75 0.375 11.109375 -0.171875 8.890625 -1.265625 C 6.671875 -2.359375 4.972656 -3.9375 3.796875 -6 C 2.628906 -8.0625 2.046875 -10.46875 2.046875 -13.21875 C 2.046875 -17.414062 3.347656 -20.691406 5.953125 -23.046875 C 8.566406 -25.410156 12.195312 -26.59375 16.84375 -26.59375 C 19.875 -26.59375 22.503906 -26.0625 24.734375 -25 C 26.960938 -23.945312 28.664062 -22.410156 29.84375 -20.390625 C 31.019531 -18.367188 31.609375 -15.976562 31.609375 -13.21875 Z M 27.484375 -13.21875 C 27.484375 -16.476562 26.554688 -19.039062 24.703125 -20.90625 C 22.847656 -22.769531 20.226562 -23.703125 16.84375 -23.703125 C 13.4375 -23.703125 10.800781 -22.78125 8.9375 -20.9375 C 7.082031 -19.101562 6.15625 -16.53125 6.15625 -13.21875 C 6.15625 -9.9375 7.09375 -7.332031 8.96875 -5.40625 C 10.851562 -3.476562 13.46875 -2.515625 16.8125 -2.515625 C 20.25 -2.515625 22.882812 -3.445312 24.71875 -5.3125 C 26.5625 -7.175781 27.484375 -9.8125 27.484375 -13.21875 Z M 27.484375 -13.21875 "/></g></g></g><g fill="#454545" fill-opacity="1"><g transform="translate(1079.759844, 1095.287986)"><g><path d="M 16.421875 -10.859375 L 16.421875 0 L 12.40625 0 L 12.40625 -10.859375 L 0.953125 -26.203125 L 5.390625 -26.203125 L 14.453125 -13.734375 L 23.484375 -26.203125 L 27.921875 -26.203125 Z M 16.421875 -10.859375 "/></g></g></g><g fill="#454545" fill-opacity="1"><g transform="translate(1115.906259, 1095.287986)"><g><path d="M 28.875 0 L 28.875 -17.484375 C 28.875 -19.421875 28.9375 -21.28125 29.0625 -23.0625 C 28.375 -20.84375 27.753906 -19.109375 27.203125 -17.859375 L 19.515625 0 L 16.6875 0 L 8.875 -17.859375 L 7.703125 -21.015625 L 7 -23.0625 L 7.0625 -21 L 7.140625 -17.484375 L 7.140625 0 L 3.546875 0 L 3.546875 -26.203125 L 8.859375 -26.203125 L 16.78125 -8.03125 C 17.0625 -7.300781 17.332031 -6.515625 17.59375 -5.671875 C 17.851562 -4.835938 18.03125 -4.238281 18.125 -3.875 C 18.226562 -4.363281 18.457031 -5.113281 18.8125 -6.125 C 19.175781 -7.132812 19.425781 -7.769531 19.5625 -8.03125 L 27.328125 -26.203125 L 32.515625 -26.203125 L 32.515625 0 Z M 28.875 0 "/></g></g></g><g fill="#454545" fill-opacity="1"><g transform="translate(1159.241332, 1095.287986)"><g><path d="M 3.546875 0 L 3.546875 -26.203125 L 26.15625 -26.203125 L 26.15625 -23.3125 L 7.59375 -23.3125 L 7.59375 -14.90625 L 24.890625 -14.90625 L 24.890625 -12.03125 L 7.59375 -12.03125 L 7.59375 -2.90625 L 27.015625 -2.90625 L 27.015625 0 Z M 3.546875 0 "/></g></g></g><g fill="#454545" fill-opacity="1"><g transform="translate(1195.387746, 1095.287986)"><g><path d="M 22.875 0 L 6.9375 -22.328125 L 7.046875 -20.515625 L 7.140625 -17.40625 L 7.140625 0 L 3.546875 0 L 3.546875 -26.203125 L 8.25 -26.203125 L 24.359375 -3.734375 C 24.179688 -6.171875 24.09375 -7.929688 24.09375 -9.015625 L 24.09375 -26.203125 L 27.734375 -26.203125 L 27.734375 0 Z M 22.875 0 "/></g></g></g><g fill="#454545" fill-opacity="1"><g transform="translate(1233.923408, 1095.287986)"><g><path d="M 15.21875 -23.3125 L 15.21875 0 L 11.203125 0 L 11.203125 -23.3125 L 0.96875 -23.3125 L 0.96875 -26.203125 L 25.453125 -26.203125 L 25.453125 -23.3125 Z M 15.21875 -23.3125 "/></g></g></g><path fill="#ff0000" d="M 1127.25 464.203125 C 1123.128906 470.976562 1116.117188 474.972656 1109.191406 478.839844 C 1112.121094 483.070312 1112.011719 488.75 1110.707031 493.730469 C 1109.40625 498.710938 1107.035156 503.367188 1105.707031 508.34375 C 1104.382812 513.324219 1104.722656 519.90625 1107.609375 524.15625 C 1103.636719 524.324219 1100.300781 527.511719 1098.675781 531.167969 C 1097.074219 534.820312 1096.816406 538.878906 1096.476562 542.851562 C 1096.136719 546.828125 1095.597656 550.929688 1093.527344 554.328125 L 1093.613281 554.347656 C 1099.320312 556.613281 1105.261719 559.027344 1109.300781 563.664062 C 1110.476562 565.03125 1111.480469 566.570312 1112.101562 568.234375 C 1113.511719 572.082031 1112.9375 576.441406 1111.351562 580.199219 C 1109.769531 583.984375 1107.269531 587.292969 1104.816406 590.5625 C 1108.023438 593.75 1113.277344 597.335938 1114.730469 601.628906 C 1115.648438 604.367188 1115.734375 607.316406 1116.140625 610.175781 C 1117.554688 620.308594 1122.9375 629.839844 1122.597656 640.070312 L 1122.597656 640.089844 C 1122.574219 641.136719 1121.808594 642.015625 1120.910156 642.550781 C 1120.015625 643.085938 1119.007812 643.386719 1118.089844 643.855469 C 1114.90625 645.480469 1113.21875 649.09375 1112.554688 652.617188 C 1111.890625 656.144531 1111.996094 659.777344 1111.25 663.277344 C 1109.734375 670.414062 1104.265625 676.207031 1099.515625 681.765625 C 1102.105469 685.011719 1104.730469 688.300781 1106.203125 692.171875 C 1107.679688 696.039062 1107.847656 700.632812 1105.648438 704.136719 C 1102.957031 708.429688 1096.480469 710.484375 1091.582031 711.765625 C 1095.199219 715.273438 1099.023438 719.136719 1099.746094 724.117188 C 1100.234375 727.582031 1099.167969 731.101562 1099.617188 734.566406 C 1100.003906 737.558594 1101.515625 740.316406 1103.460938 742.605469 C 1105.40625 744.894531 1107.777344 746.816406 1110.105469 748.71875 C 1105.875 755.0625 1106.300781 764.148438 1108.292969 771.519531 C 1110.28125 778.890625 1113.800781 785.773438 1115.75 793.164062 C 1118.25 802.585938 1118.082031 812.695312 1115.300781 822.03125 C 1102.632812 825.042969 1087.949219 825.070312 1075.617188 820.855469 C 1069.957031 818.914062 1064.53125 816.242188 1058.675781 814.980469 C 1052.816406 813.71875 1045.765625 813.914062 1041.003906 817.523438 C 1038.824219 813.933594 1035.464844 811.066406 1031.578125 809.511719 C 1027.070312 807.695312 1022.070312 807.628906 1017.265625 806.859375 C 1012.460938 806.09375 1007.113281 804.019531 1004.402344 799.980469 C 1003.246094 805.042969 1000.875 809.832031 997.519531 813.804688 C 996.324219 815.21875 994.871094 816.605469 993.035156 816.882812 C 991.648438 817.074219 990.277344 816.605469 988.972656 816.09375 C 984.0625 814.171875 979.210938 811.222656 974.890625 808.1875 C 972.328125 808.058594 970.019531 809.722656 968.246094 811.5625 C 966.472656 813.398438 964.929688 815.558594 962.777344 816.921875 C 957.238281 820.410156 949.71875 817.691406 943.628906 820.0625 C 938.628906 822.007812 934.398438 826.726562 931.664062 831.347656 C 929.914062 829.851562 927.5625 829.335938 925.277344 829.144531 C 922.988281 828.957031 920.683594 829.039062 918.441406 828.527344 C 915.085938 827.78125 912.136719 825.789062 908.871094 824.742188 C 904.234375 823.25 899.148438 823.695312 894.535156 822.179688 C 889.296875 820.46875 885.199219 816.414062 881.304688 812.5 C 876.457031 816.136719 874.214844 816.945312 868.566406 819.1875 C 866.304688 820.082031 863.847656 820.871094 861.476562 820.300781 C 859.511719 819.808594 857.886719 818.4375 856.453125 817.011719 C 852.242188 812.824219 848.84375 807.4375 846.496094 801.96875 C 840.339844 805.128906 832.691406 802.785156 826.085938 804.875 C 821.472656 806.351562 817.347656 810.261719 815.746094 814.855469 C 812.410156 811.671875 807.089844 811.648438 802.6875 813.019531 C 798.285156 814.386719 794.308594 816.886719 789.90625 818.257812 C 783.945312 820.09375 777.320312 819.710938 771.617188 817.171875 L 771.640625 815.933594 C 769.480469 824.140625 763.601562 831.296875 755.976562 834.996094 C 753.816406 836.042969 751.425781 836.832031 749.074219 836.472656 C 747.089844 836.152344 745.3125 835.058594 743.6875 833.882812 C 737.722656 829.628906 732.640625 824.140625 728.835938 817.855469 C 722.0625 819.011719 715.160156 820.164062 708.855469 817.429688 C 705.628906 816.042969 702.828125 813.710938 699.539062 812.488281 C 694.371094 810.589844 688.175781 811.824219 684.113281 815.546875 C 683.296875 811.59375 679.902344 808.304688 676.226562 806.660156 C 672.527344 805.015625 668.445312 804.566406 664.429688 804.140625 C 660.414062 803.710938 656.332031 803.242188 652.65625 801.550781 C 652.015625 807.429688 649.667969 811.9375 645.691406 816.316406 C 644.089844 818.089844 642.144531 819.710938 639.792969 820.078125 C 638.277344 820.316406 636.71875 819.992188 635.242188 819.589844 C 629.855469 818.136719 624.753906 815.703125 620.242188 812.429688 C 612.890625 814.949219 608.53125 822.640625 600.945312 824.332031 C 597.378906 825.121094 593.574219 824.417969 590.007812 825.207031 C 587.207031 825.828125 584.707031 827.300781 581.949219 828.113281 C 577.097656 829.546875 571.589844 828.882812 567.25 831.472656 C 564.960938 826.28125 559.386719 822.046875 553.9375 820.484375 C 550.730469 819.566406 547.335938 819.5 544.066406 818.800781 C 537.828125 817.476562 531.007812 812.664062 527.230469 807.542969 C 524.429688 810.128906 523.914062 810.617188 520.605469 812.542969 C 517.292969 814.464844 513.402344 815.597656 509.644531 815.042969 C 506.207031 814.53125 503.0625 812.5625 500.863281 809.890625 C 498.640625 807.222656 496.847656 802.777344 496.398438 799.335938 C 493.511719 803.949219 488.210938 806.792969 482.808594 807.34375 C 479.113281 807.730469 475.351562 807.132812 471.699219 807.816406 C 466.589844 808.777344 461.1875 813.132812 459.050781 817.855469 C 454.539062 814.519531 448.472656 814.09375 442.894531 814.867188 C 433.941406 816.105469 425.609375 820.015625 416.886719 822.347656 C 406.824219 825.039062 392.761719 825.105469 384.8125 822.046875 C 382.011719 812.710938 381.863281 802.601562 384.363281 793.179688 C 386.328125 785.808594 389.855469 778.90625 391.824219 771.535156 C 393.8125 764.160156 394.261719 755.078125 390.007812 748.734375 C 392.359375 746.832031 394.710938 744.929688 396.652344 742.621094 C 398.597656 740.308594 400.117188 737.578125 400.5 734.582031 C 400.949219 731.117188 399.859375 727.597656 400.371094 724.132812 C 401.097656 719.152344 404.921875 715.289062 408.53125 711.78125 C 403.617188 710.519531 397.164062 708.445312 394.46875 704.152344 C 392.265625 700.648438 392.4375 696.054688 393.910156 692.1875 C 395.386719 688.320312 398.015625 685.007812 400.597656 681.78125 C 395.855469 676.222656 390.386719 670.453125 388.863281 663.292969 C 388.117188 659.789062 388.246094 656.160156 387.558594 652.632812 C 386.894531 649.109375 385.210938 645.5 382.023438 643.871094 C 381.105469 643.402344 380.082031 643.101562 379.203125 642.566406 C 378.308594 642.03125 377.539062 641.152344 377.519531 640.105469 L 377.519531 640.085938 C 377.15625 629.875 382.539062 620.320312 383.972656 610.191406 C 384.378906 607.332031 384.460938 604.382812 385.386719 601.644531 C 386.839844 597.351562 392.070312 593.785156 395.296875 590.578125 C 392.820312 587.308594 390.339844 583.996094 388.761719 580.214844 C 387.183594 576.4375 386.582031 572.078125 388.015625 568.25 C 388.632812 566.566406 389.636719 565.023438 390.8125 563.679688 C 394.828125 559.039062 400.792969 556.605469 406.5 554.363281 L 406.585938 554.34375 C 404.515625 550.925781 404 546.84375 403.640625 542.867188 C 403.296875 538.894531 403.039062 534.8125 401.4375 531.183594 C 399.835938 527.546875 396.5 524.347656 392.503906 524.171875 C 395.390625 519.898438 395.730469 513.335938 394.40625 508.359375 C 393.082031 503.386719 390.710938 498.726562 389.40625 493.746094 C 388.101562 488.765625 387.992188 483.085938 390.921875 478.855469 C 384 474.988281 376.988281 470.992188 372.863281 464.21875 C 371.300781 461.675781 370.234375 458.640625 370.769531 455.710938 C 371.179688 453.492188 372.457031 451.527344 373.847656 449.726562 C 376.109375 446.800781 378.71875 444.148438 381.625 441.839844 C 383.570312 440.304688 385.664062 438.871094 387.203125 436.929688 C 388.742188 434.984375 389.664062 432.335938 388.828125 429.984375 C 388.378906 426.070312 388.507812 421.371094 389.746094 417.613281 C 391.132812 413.402344 394.230469 409.898438 395.492188 405.648438 C 396.949219 400.796875 395.835938 395.070312 392.503906 391.265625 C 394.835938 390.28125 397.246094 389.234375 398.917969 387.332031 C 400.410156 385.621094 401.160156 383.398438 401.738281 381.195312 C 403.359375 375.042969 403.917969 368.65625 404.472656 362.328125 C 404.535156 361.710938 404.582031 361.027344 404.238281 360.496094 C 403.917969 359.957031 401.867188 359.425781 401.480469 359.917969 C 394.46875 358.230469 388.71875 352.136719 387.441406 345.023438 C 386.15625 337.910156 389.453125 330.214844 395.453125 326.199219 C 390.214844 322.910156 386.539062 317.136719 384.664062 311.238281 C 382.785156 305.339844 382.183594 299.125 381.246094 293.011719 C 380.308594 286.898438 378.9375 280.699219 375.753906 275.402344 C 380.734375 271.664062 386.097656 268.050781 387.742188 262.300781 C 388.957031 258.117188 388.679688 253.605469 389.683594 249.351562 C 391.050781 243.476562 394.921875 238.242188 400.113281 235.207031 C 397.550781 231.960938 395.023438 227.75 393.746094 223.820312 C 392.460938 219.886719 392.441406 215.382812 394.582031 211.835938 C 397.273438 207.324219 403.277344 205.019531 408.40625 203.824219 L 408.617188 203.824219 C 406.078125 201.941406 406.179688 202.070312 404.34375 199.507812 C 402.125 196.390625 401.160156 192.523438 400.582031 188.71875 C 400.003906 184.914062 399.746094 181.050781 398.679688 177.351562 C 398.765625 174.722656 397.355469 171.605469 395.152344 170.171875 C 393.699219 169.234375 391.796875 168.636719 391.089844 167.054688 C 390.644531 166.027344 390.855469 164.8125 391.433594 163.867188 C 392.007812 162.929688 393.054688 162.054688 394.039062 161.515625 C 393.71875 150.980469 389.425781 141.027344 386.710938 130.835938 C 383.355469 118.332031 382.328125 105.234375 383.699219 92.371094 C 391.667969 89.316406 406.886719 90.0625 416.949219 92.757812 C 425.667969 95.089844 434 98.996094 442.957031 100.238281 C 448.511719 101.007812 454.582031 100.578125 459.113281 97.25 C 461.25 101.992188 466.652344 106.351562 471.761719 107.292969 C 475.417969 107.976562 479.175781 107.378906 482.871094 107.761719 C 488.300781 108.316406 493.578125 111.15625 496.460938 115.769531 C 496.929688 112.332031 498.722656 107.910156 500.925781 105.214844 C 503.144531 102.542969 506.285156 100.601562 509.707031 100.0625 C 513.492188 99.488281 517.359375 100.640625 520.667969 102.5625 C 523.980469 104.464844 524.492188 104.957031 527.292969 107.566406 C 531.097656 102.433594 537.890625 97.625 544.128906 96.300781 C 547.394531 95.617188 550.792969 95.53125 554 94.617188 C 559.46875 93.054688 565.027344 88.847656 567.308594 83.628906 C 571.671875 86.21875 577.160156 85.53125 582.011719 86.984375 C 584.75 87.800781 587.269531 89.273438 590.070312 89.894531 C 593.65625 90.683594 597.441406 89.980469 601.007812 90.769531 C 608.597656 92.457031 612.953125 100.171875 620.304688 102.671875 C 624.8125 99.40625 629.917969 96.945312 635.304688 95.511719 C 636.800781 95.105469 638.339844 94.785156 639.855469 95.023438 C 642.207031 95.382812 644.171875 97.011719 645.753906 98.785156 C 649.707031 103.167969 652.078125 107.671875 652.71875 113.550781 C 656.394531 111.863281 660.476562 111.390625 664.492188 110.960938 C 668.507812 110.535156 672.589844 110.085938 676.285156 108.441406 C 679.984375 106.796875 683.359375 103.503906 684.175781 99.554688 C 688.234375 103.292969 694.433594 104.511719 699.601562 102.609375 C 702.914062 101.394531 705.691406 99.0625 708.917969 97.671875 C 715.222656 94.960938 722.125 96.109375 728.898438 97.246094 C 732.703125 90.960938 737.785156 85.492188 743.75 81.21875 C 745.394531 80.042969 747.148438 78.953125 749.136719 78.628906 C 751.507812 78.269531 753.902344 79.058594 756.039062 80.105469 C 763.667969 83.800781 769.546875 90.960938 771.699219 99.167969 L 771.679688 97.929688 C 777.386719 95.386719 784.011719 95.003906 789.96875 96.84375 C 794.371094 98.207031 798.347656 100.707031 802.75 102.078125 C 807.152344 103.445312 812.449219 103.40625 815.808594 100.246094 C 817.390625 104.816406 821.511719 108.75 826.148438 110.226562 C 832.75 112.316406 840.402344 109.96875 846.554688 113.132812 C 848.90625 107.664062 852.304688 102.296875 856.515625 98.089844 C 857.949219 96.65625 859.574219 95.289062 861.535156 94.800781 C 863.90625 94.222656 866.367188 95.011719 868.628906 95.914062 C 874.25 98.15625 876.515625 98.972656 881.367188 102.601562 C 885.253906 98.6875 889.335938 94.652344 894.597656 92.917969 C 899.210938 91.402344 904.316406 91.851562 908.933594 90.355469 C 912.199219 89.3125 915.148438 87.320312 918.503906 86.574219 C 920.746094 86.082031 923.054688 86.167969 925.339844 85.953125 C 927.628906 85.765625 929.980469 85.226562 931.726562 83.753906 C 934.464844 88.367188 938.671875 93.117188 943.691406 95.039062 C 949.804688 97.390625 957.328125 94.675781 962.835938 98.175781 C 965.019531 99.542969 966.535156 101.703125 968.308594 103.539062 C 970.082031 105.375 972.390625 107.042969 974.953125 106.914062 C 979.265625 103.90625 984.136719 100.949219 989.035156 99.007812 C 990.339844 98.496094 991.707031 98.023438 993.097656 98.21875 C 994.933594 98.476562 996.386719 99.863281 997.582031 101.296875 C 1000.9375 105.269531 1003.308594 110.058594 1004.464844 115.121094 C 1007.175781 111.085938 1012.523438 109.007812 1017.324219 108.238281 C 1022.136719 107.472656 1027.109375 107.40625 1031.640625 105.589844 C 1035.527344 104.027344 1038.882812 101.167969 1041.066406 97.578125 C 1045.828125 101.214844 1052.878906 101.40625 1058.734375 100.121094 C 1064.59375 98.859375 1070.019531 96.167969 1075.679688 94.246094 C 1088.011719 90.03125 1103.84375 89.351562 1116.539062 92.363281 C 1117.90625 105.222656 1116.878906 118.324219 1113.527344 130.824219 C 1110.792969 141.015625 1106.496094 150.953125 1106.199219 161.507812 C 1107.183594 162.015625 1108.207031 162.894531 1108.808594 163.855469 C 1109.40625 164.820312 1109.59375 166.039062 1109.148438 167.042969 C 1108.441406 168.644531 1106.539062 169.222656 1105.085938 170.160156 C 1102.882812 171.59375 1101.472656 174.714844 1101.558594 177.34375 C 1100.511719 181.039062 1100.253906 184.90625 1099.65625 188.710938 C 1099.058594 192.515625 1098.121094 196.359375 1095.894531 199.5 C 1094.058594 202.0625 1094.160156 201.9375 1091.621094 203.8125 L 1091.832031 203.8125 C 1096.960938 205.007812 1102.941406 207.320312 1105.65625 211.824219 C 1107.769531 215.371094 1107.769531 219.882812 1106.492188 223.808594 C 1105.207031 227.742188 1102.6875 231.949219 1100.125 235.199219 C 1105.316406 238.234375 1109.1875 243.488281 1110.554688 249.34375 C 1111.539062 253.59375 1111.28125 258.082031 1112.496094 262.292969 C 1114.164062 268.019531 1119.507812 271.652344 1124.484375 275.390625 C 1121.277344 280.691406 1119.929688 286.886719 1118.992188 293 C 1118.054688 299.113281 1117.457031 305.332031 1115.574219 311.226562 C 1113.695312 317.125 1110.039062 322.894531 1104.785156 326.1875 C 1110.792969 330.203125 1114.058594 337.921875 1112.796875 345.015625 C 1111.535156 352.109375 1105.785156 358.222656 1098.757812 359.90625 C 1098.375 359.417969 1096.320312 359.949219 1096 360.484375 C 1095.683594 361.019531 1095.722656 361.679688 1095.765625 362.320312 C 1096.320312 368.664062 1096.898438 375.03125 1098.503906 381.1875 C 1099.078125 383.386719 1099.828125 385.609375 1101.320312 387.320312 C 1102.988281 389.222656 1105.40625 390.269531 1107.734375 391.253906 C 1104.398438 395.058594 1103.289062 400.785156 1104.746094 405.636719 C 1106.007812 409.890625 1109.105469 413.394531 1110.492188 417.601562 C 1111.730469 421.339844 1111.859375 426.039062 1111.410156 429.972656 C 1110.574219 432.304688 1111.496094 434.972656 1113.035156 436.917969 C 1114.570312 438.859375 1116.667969 440.273438 1118.613281 441.832031 C 1121.5 444.140625 1124.121094 446.789062 1126.390625 449.71875 C 1127.777344 451.511719 1129.0625 453.480469 1129.46875 455.703125 C 1129.902344 458.625 1128.8125 461.636719 1127.25 464.203125 Z M 1127.25 464.203125 " fill-opacity="1" fill-rule="nonzero"/><g clip-path="url(#489023b164)"><path fill="#000000" d="M 363.378906 70.964844 L 1136.628906 70.964844 L 1136.628906 844.214844 L 363.378906 844.214844 Z M 363.378906 70.964844 " fill-opacity="1" fill-rule="nonzero"/></g><path fill="#0071bc" d="M 750.035156 272.46875 L 922.957031 385.40625 L 577.113281 385.40625 Z M 750.035156 272.46875 " fill-opacity="1" fill-rule="nonzero"/><path fill="#0071bc" d="M 574.324219 400.746094 L 925.746094 400.746094 L 895.066406 471.855469 L 605.003906 471.855469 Z M 574.324219 400.746094 " fill-opacity="1" fill-rule="nonzero"/><path fill="#0071bc" d="M 660.785156 488.585938 L 839.285156 488.585938 L 861.597656 693.550781 L 638.472656 693.550781 Z M 660.785156 488.585938 " fill-opacity="1" fill-rule="nonzero"/><path fill="#0071bc" d="M 610.582031 710.28125 L 889.488281 710.28125 L 922.957031 782.785156 L 577.113281 782.785156 Z M 610.582031 710.28125 " fill-opacity="1" fill-rule="nonzero"/><path fill="#0071bc" d="M 552.011719 798.125 L 948.058594 798.125 C 948.421875 798.125 948.785156 798.160156 949.144531 798.230469 C 949.503906 798.300781 949.855469 798.40625 950.191406 798.546875 C 950.53125 798.6875 950.851562 798.859375 951.15625 799.0625 C 951.460938 799.265625 951.742188 799.5 952 799.757812 C 952.261719 800.015625 952.492188 800.296875 952.695312 800.601562 C 952.898438 800.90625 953.070312 801.226562 953.210938 801.566406 C 953.351562 801.90625 953.457031 802.253906 953.527344 802.613281 C 953.601562 802.972656 953.636719 803.335938 953.636719 803.699219 L 953.636719 834.375 C 953.636719 834.742188 953.601562 835.105469 953.527344 835.464844 C 953.457031 835.824219 953.351562 836.171875 953.210938 836.511719 C 953.070312 836.847656 952.898438 837.167969 952.695312 837.472656 C 952.492188 837.777344 952.261719 838.0625 952 838.320312 C 951.742188 838.578125 951.460938 838.808594 951.15625 839.011719 C 950.851562 839.214844 950.53125 839.386719 950.191406 839.527344 C 949.855469 839.667969 949.503906 839.773438 949.144531 839.847656 C 948.785156 839.917969 948.421875 839.953125 948.058594 839.953125 L 552.011719 839.953125 C 551.644531 839.953125 551.28125 839.917969 550.921875 839.847656 C 550.5625 839.773438 550.214844 839.667969 549.875 839.527344 C 549.539062 839.386719 549.214844 839.214844 548.910156 839.011719 C 548.605469 838.808594 548.324219 838.578125 548.066406 838.320312 C 547.808594 838.0625 547.574219 837.777344 547.371094 837.472656 C 547.167969 837.167969 546.996094 836.847656 546.855469 836.511719 C 546.71875 836.171875 546.609375 835.824219 546.539062 835.464844 C 546.46875 835.105469 546.433594 834.742188 546.433594 834.375 L 546.433594 803.699219 C 546.433594 803.335938 546.46875 802.972656 546.539062 802.613281 C 546.609375 802.253906 546.71875 801.90625 546.855469 801.566406 C 546.996094 801.226562 547.167969 800.90625 547.371094 800.601562 C 547.574219 800.296875 547.808594 800.015625 548.066406 799.757812 C 548.324219 799.5 548.605469 799.265625 548.910156 799.0625 C 549.214844 798.859375 549.539062 798.6875 549.875 798.546875 C 550.214844 798.40625 550.5625 798.300781 550.921875 798.230469 C 551.28125 798.160156 551.644531 798.125 552.011719 798.125 Z M 552.011719 798.125 " fill-opacity="1" fill-rule="nonzero"/></svg>